:SAMPLES-PER-SECOND 30
:FULLY-SPECIFIED
:DEGREES
67
root  50.1723 39.5839 -8.77797 125.999 -85.7632 -122.288
RightUpLeg  -23.2031 -3.99491 6.22411
RightLeg  24.1008 -6.18742 -3.23512
RightFoot  -11.1876 -0.0847807 4.72509
RightToes  1.74622e-010 0 -3.6325e-017
Spine  9.54619 -4.1368 0.317282
Spine1  3.2389 -5.49225 6.37468
HEad  -19.8445 9.98693 -5.13733
LeftShoulder1  8.0024 -12.4276 -43.7115
LeftArm  11.2746 9.87672 -31.895
LeftForeArm  177.471 -63.2532 -161.194
LeftHand  -0.244104 0.0205437 5.32207
RightShoulder  5.38841 9.8497 34.3998
RightArm  -1.05069 -55.1673 29.8044
RightForeArm  129.662 71.7537 144.68
RightHand  0.309803 -8.89663 -11.1493
LeftUpLeg  7.17018 10.0017 4.21031
LeftLeg  28.8031 3.59742 2.46494
LeftFoot  3.13007 0.814291 -6.53805
LeftToes  -6.36679e-011 4.33698e-011 -8.22343e-012
68
root  48.3533 38.9416 -8.85935 112.546 -85.4557 -110.175
RightUpLeg  -21.3902 -5.21701 7.49808
RightLeg  26.1923 -6.24978 -3.57145
RightFoot  -12.4701 -0.0630283 2.08685
RightToes  1.74622e-010 0 -3.6325e-017
Spine  10.9202 -4.27548 3.22964
Spine1  3.68146 -4.95182 5.28659
HEad  -19.9099 8.73953 -5.14291
LeftShoulder1  8.08052 -12.6063 -43.6448
LeftArm  11.9089 8.77916 -32.8914
LeftForeArm  175.669 -64.6881 -159.832
LeftHand  -0.244104 0.0205437 5.32207
RightShoulder  5.40336 9.82125 34.5961
RightArm  -6.8709 -52.2495 35.7087
RightForeArm  131.741 72.3239 143.825
RightHand  0.300682 -9.22509 -10.1457
LeftUpLeg  3.69667 5.36709 4.50445
LeftLeg  41.2447 2.85896 3.02068
LeftFoot  4.64372 0.879866 -6.46789
LeftToes  -6.36679e-011 4.33698e-011 -8.22343e-012
69
root  46.5281 38.1382 -8.89963 101.271 -84.6468 -100.173
RightUpLeg  -20.2435 -6.44569 8.86496
RightLeg  31.6242 -6.16926 -4.34034
RightFoot  -13.9849 -0.145053 -1.93276
RightToes  1.74622e-010 0 -3.6325e-017
Spine  12.0301 -4.16951 6.80074
Spine1  4.52764 -4.03228 4.09886
HEad  -21.2835 7.11637 -5.21451
LeftShoulder1  8.04587 -12.3078 -44.3164
LeftArm  11.3341 7.51712 -34.3036
LeftForeArm  175.72 -66.2032 -158.449
LeftHand  -0.244104 0.0205437 5.32207
RightShoulder  5.69786 9.89853 36.514
RightArm  -7.94742 -46.8768 35.6165
RightForeArm  134.749 71.334 146.239
RightHand  0.308516 -9.73805 -9.1981
LeftUpLeg  -0.534826 1.91703 5.53167
LeftLeg  54.1125 1.87223 3.31446
LeftFoot  3.12876 0.868637 -6.98883
LeftToes  -6.36679e-011 4.33698e-011 -8.22343e-012
70
root  44.6476 37.4053 -8.90316 101.727 -83.523 -101.305
RightUpLeg  -19.3699 -7.03144 9.91134
RightLeg  37.7008 -5.73486 -5.01389
RightFoot  -17.68 -0.356142 -4.35795
RightToes  1.74622e-010 0 -3.6325e-017
Spine  12.668 -3.64275 10.4711
Spine1  5.30756 -2.65455 2.42245
HEad  -23.0496 5.4822 -6.29281
LeftShoulder1  8.18876 -11.8904 -46.393
LeftArm  8.93861 8.16024 -34.9825
LeftForeArm  176.058 -67.3058 -157.377
LeftHand  -0.244104 0.0205437 5.32207
RightShoulder  6.29972 9.96674 40.5911
RightArm  -4.43818 -37.7344 29.867
RightForeArm  132.388 70.1398 148.047
RightHand  0.374678 -9.82591 -10.6993
LeftUpLeg  -5.9427 0.285954 6.84084
LeftLeg  65.5018 1.86751 5.25237
LeftFoot  0.85526 0.666924 -6.26782
LeftToes  -6.36679e-011 4.33698e-011 -8.22343e-012
71
root  42.7248 36.9382 -8.89599 107.254 -82.4104 -106.928
RightUpLeg  -17.4547 -7.69359 10.3637
RightLeg  41.196 -4.83067 -4.82095
RightFoot  -22.4971 -0.560056 -4.22271
RightToes  1.74622e-010 0 -3.6325e-017
Spine  12.7151 -2.88922 14.2135
Spine1  6.19549 -0.809147 -0.241127
HEad  -24.1798 3.79465 -7.26227
LeftShoulder1  8.69552 -11.9475 -49.118
LeftArm  5.35986 12.3479 -33.6938
LeftForeArm  174.557 -67.3742 -157.127
LeftHand  -0.244104 0.0205437 5.32207
RightShoulder  6.82353 10.0161 44.0435
RightArm  -1.3547 -26.4832 25.4141
RightForeArm  130.303 70.2202 147.627
RightHand  0.457192 -10.1515 -11.9379
LeftUpLeg  -12.3228 0.120552 8.01313
LeftLeg  73.4969 1.88929 8.22344
LeftFoot  -0.949332 0.356798 -3.84106
LeftToes  -6.36679e-011 4.33698e-011 -8.22343e-012
72
root  40.6615 36.9116 -8.93863 112.965 -82.2615 -112.543
RightUpLeg  -13.2539 -8.61985 9.39923
RightLeg  40.1912 -3.6797 -3.64107
RightFoot  -25.5762 -0.5874 -3.30904
RightToes  1.74622e-010 0 -3.6325e-017
Spine  12.0218 -1.68758 17.0032
Spine1  7.27162 1.58863 -3.75245
HEad  -24.1997 1.62501 -6.02036
LeftShoulder1  9.19494 -12.3342 -50.6771
LeftArm  2.97063 19.0423 -30.6794
LeftForeArm  172.325 -66.3326 -157.943
LeftHand  -0.244104 0.0205437 5.32207
RightShoulder  6.88209 10.0764 44.2282
RightArm  -1.45977 -18.264 26.5945
RightForeArm  136.782 70.077 148.726
RightHand  0.467234 -11.0828 -10.3432
LeftUpLeg  -18.2382 0.478319 7.86318
LeftLeg  76.4338 1.84827 10.159
LeftFoot  -2.9494 0.131169 -1.55767
LeftToes  -6.36679e-011 4.33698e-011 -8.22343e-012
73
root  38.3731 37.4195 -9.07639 121.199 -84.0605 -120.608
RightUpLeg  -6.97433 -9.13067 6.34257
RightLeg  35.1187 -2.83021 -2.40525
RightFoot  -25.3673 -0.472829 -2.45438
RightToes  1.74622e-010 0 -3.6325e-017
Spine  10.8584 0.191217 17.2352
Spine1  7.74976 4.31239 -7.46436
HEad  -23.0501 -1.28071 -2.24218
LeftShoulder1  9.17492 -12.488 -50.0793
LeftArm  3.53713 25.7814 -26.9073
LeftForeArm  171.51 -64.6687 -159.415
LeftHand  -0.244104 0.0205437 5.32207
RightShoulder  6.56336 10.0106 42.2767
RightArm  -3.27079 -15.6493 31.2032
RightForeArm  148.494 67.5517 153.736
RightHand  0.37815 -11.2762 -8.28697
LeftUpLeg  -22.4006 0.837668 5.38567
LeftLeg  73.6638 2.5956 11.024
LeftFoot  -5.55197 0.115858 -1.75026
LeftToes  -6.36679e-011 4.33698e-011 -8.22343e-012
74
root  35.9179 38.3237 -9.25232 150.936 -86.9764 -149.672
RightUpLeg  -0.370995 -9.65156 1.78381
RightLeg  28.0756 -1.92429 -1.38851
RightFoot  -21.9445 -0.175426 -0.184727
RightToes  1.74622e-010 0 -3.6325e-017
Spine  9.40474 2.29536 14.8853
Spine1  6.99301 6.60158 -10.6339
HEad  -20.7571 -4.48885 2.166
LeftShoulder1  8.67594 -12.2391 -48.0978
LeftArm  5.71387 31.3947 -23.2216
LeftForeArm  172.244 -62.6895 -161.119
LeftHand  -0.244104 0.0205437 5.32207
RightShoulder  6.22723 9.67901 41.0406
RightArm  -3.57125 -16.1064 34.7768
RightForeArm  153.898 63.6199 158.511
RightHand  0.337509 -10.478 -8.64989
LeftUpLeg  -24.9002 1.41684 1.15383
LeftLeg  65.672 4.58664 11.6193
LeftFoot  -7.76234 0.165152 -3.73831
LeftToes  -6.36679e-011 4.33698e-011 -8.22343e-012
75
root  33.4229 39.3141 -9.35865 -134.067 -88.3184 136.659
RightUpLeg  4.96748 -11.8569 -2.99839
RightLeg  21.562 0.436467 0.0856917
RightFoot  -15.2694 0.00926203 3.75564
RightToes  1.74622e-010 0 -3.6325e-017
Spine  7.43907 3.81546 11.8593
Spine1  5.75552 7.84043 -12.7515
HEad  -17.7556 -7.13631 5.13963
LeftShoulder1  8.16571 -11.9132 -46.1956
LeftArm  6.68199 36.4113 -20.439
LeftForeArm  173.361 -60.4794 -162.807
LeftHand  -0.244104 0.0205437 5.32207
RightShoulder  5.98558 9.23482 40.8014
RightArm  -1.05825 -16.2802 35.877
RightForeArm  152.805 60.6998 160.76
RightHand  0.316957 -9.80621 -9.26265
LeftUpLeg  -26.2703 2.66957 -3.25302
LeftLeg  53.8444 7.15622 10.9061
LeftFoot  -8.66973 0.154668 -4.3563
LeftToes  -6.36679e-011 4.33698e-011 -8.22343e-012
76
root  30.9851 40.1114 -9.35911 -78.0206 -87.3041 81.8331
RightUpLeg  8.47483 -14.4667 -6.45635
RightLeg  18.0572 3.4739 1.64009
RightFoot  -5.75554 -0.369069 6.95706
RightToes  1.74622e-010 0 -3.6325e-017
Spine  5.46974 4.47919 10.1769
Spine1  5.23368 8.24784 -13.7938
HEad  -15.2799 -8.85684 6.04718
LeftShoulder1  8.01132 -11.9277 -45.2466
LeftArm  5.22123 40.8861 -19.1973
LeftForeArm  174.093 -58.3787 -164.196
LeftHand  -0.244104 0.0205437 5.32207
RightShoulder  5.83677 9.1077 40.1385
RightArm  2.78803 -15.7193 35.9581
RightForeArm  153.343 58.7667 162.135
RightHand  0.251073 -10.4986 -6.88517
LeftUpLeg  -26.4113 4.60218 -6.6095
LeftLeg  40.3903 8.02343 7.70838
LeftFoot  -9.13294 0.122561 -3.49906
LeftToes  -6.36679e-011 4.33698e-011 -8.22343e-012
77
root  28.6564 40.5436 -9.31046 -57.971 -86.9096 61.9816
RightUpLeg  9.64423 -14.1455 -7.30007
RightLeg  19.857 4.98403 1.93386
RightFoot  3.45605 -0.959106 7.64907
RightToes  1.74622e-010 0 -3.6325e-017
Spine  4.72256 4.70952 9.87209
Spine1  5.51277 8.41139 -14.0227
HEad  -14.303 -9.9464 5.64802
LeftShoulder1  8.15219 -12.2682 -45.0407
LeftArm  1.84212 43.6657 -20.2196
LeftForeArm  174.588 -57.0835 -164.977
LeftHand  -0.244104 0.0205437 5.32207
RightShoulder  5.90747 9.52508 39.2435
RightArm  6.38107 -15.3566 35.3374
RightForeArm  157.912 56.9624 163.643
RightHand  0.102971 -11.3976 -2.98045
LeftUpLeg  -25.0993 6.78434 -8.73023
LeftLeg  28.106 6.01557 3.85643
LeftFoot  -10.4135 0.091584 -3.98643
LeftToes  -6.36679e-011 4.33698e-011 -8.22343e-012
78
root  26.4313 40.5205 -9.27549 -52.3859 -86.9893 55.5319
RightUpLeg  8.39037 -8.1635 -6.03052
RightLeg  27.5093 2.15361 0.92045
RightFoot  8.71297 -1.16898 6.93822
RightToes  1.74622e-010 0 -3.6325e-017
Spine  5.45598 4.87177 9.31166
Spine1  5.97821 8.50986 -13.505
HEad  -14.3884 -10.392 5.10495
LeftShoulder1  8.22818 -12.5425 -44.6693
LeftArm  -2.44206 44.3432 -23.7211
LeftForeArm  175.684 -56.7207 -165.261
LeftHand  -0.244104 0.0205437 5.32207
RightShoulder  6.20006 10.1809 39.2059
RightArm  9.57489 -14.8996 33.3624
RightForeArm  162.084 55.8463 164.618
RightHand  -0.00121997 -10.5867 -1.19751
LeftUpLeg  -22.7089 8.46023 -9.86075
LeftLeg  19.2831 3.9723 1.62644
LeftFoot  -11.6414 0.0589344 -5.2857
LeftToes  -6.36679e-011 4.33698e-011 -8.22343e-012
79
root  24.2549 40.0287 -9.24766 -65.8969 -87.0968 67.7052
RightUpLeg  5.58332 -2.10359 -5.58154
RightLeg  39.4615 -1.05025 -1.22388
RightFoot  10.0828 -1.10596 6.20422
RightToes  1.74622e-010 0 -3.6325e-017
Spine  6.8227 4.88179 7.40758
Spine1  6.27645 8.22452 -12.2408
HEad  -14.7157 -9.66482 4.88177
LeftShoulder1  8.0377 -12.4804 -43.7591
LeftArm  -6.69295 43.7727 -28.344
LeftForeArm  177.457 -56.4514 -165.547
LeftHand  -0.244104 0.0205437 5.32207
RightShoulder  6.48372 10.6299 39.7505
RightArm  12.5957 -13.6976 31.0504
RightForeArm  163.108 56.0963 164.563
RightHand  -0.0417372 -9.60947 -0.325409
LeftUpLeg  -20.3888 8.80582 -10.4064
LeftLeg  15.9085 5.06024 1.06135
LeftFoot  -11.1189 0.0653306 -3.70107
LeftToes  -6.36679e-011 4.33698e-011 -8.22343e-012
80
root  22.0722 39.2231 -9.17406 -84.7541 -86.6008 84.9618
RightUpLeg  2.06597 1.63431 -7.06887
RightLeg  52.4088 -2.82179 -4.30135
RightFoot  9.9768 -0.950099 5.41142
RightToes  1.74622e-010 0 -3.6325e-017
Spine  8.51728 4.35067 4.73347
Spine1  6.22831 7.20176 -10.4765
HEad  -15.562 -7.84587 4.62356
LeftShoulder1  7.73519 -12.0687 -43.1998
LeftArm  -9.81585 41.9183 -31.3653
LeftForeArm  178.161 -56.0482 -165.822
LeftHand  -0.244104 0.0205437 5.32207
RightShoulder  6.58671 10.7578 40.0445
RightArm  14.7894 -12.5809 30.2933
RightForeArm  162.73 57.659 163.651
RightHand  -0.173447 -10.3374 2.49785
LeftUpLeg  -19.1501 9.78488 -11.8793
LeftLeg  19.173 6.06527 2.21744
LeftFoot  -9.83606 0.0405964 1.54132
LeftToes  -6.36679e-011 4.33698e-011 -8.22343e-012
81
root  19.9307 38.3285 -9.06074 -91.1738 -85.416 89.5324
RightUpLeg  -2.05272 3.55429 -9.99908
RightLeg  63.9715 -3.0518 -7.34517
RightFoot  9.08722 -0.607204 3.70189
RightToes  1.74622e-010 0 -3.6325e-017
Spine  10.7947 3.29475 1.84494
Spine1  6.00432 5.59222 -8.56788
HEad  -17.6198 -6.00458 4.07891
LeftShoulder1  7.66095 -11.5699 -44.2524
LeftArm  -10.7168 37.1328 -30.4943
LeftForeArm  176.232 -57.1444 -165.064
LeftHand  -0.244104 0.0205437 5.32207
RightShoulder  6.66678 10.7137 40.712
RightArm  14.7776 -12.9089 31.3144
RightForeArm  162.146 61.3395 161.117
RightHand  -0.333096 -11.3235 5.15444
LeftUpLeg  -18.397 9.53326 -13.5373
LeftLeg  27.029 7.24354 4.40976
LeftFoot  -10.9914 0.0559246 6.72832
LeftToes  -6.36679e-011 4.33698e-011 -8.22343e-012
